<svg xmlns="http://www.w3.org/2000/svg" width="64" height="64" viewBox="0 0 64 64" fill="none">
  <rect width="64" height="64" rx="18" fill="#050816" />
  <rect
    x="8"
    y="8"
    width="48"
    height="48"
    rx="14"
    fill="url(#paint0_linear)"
    fill-opacity="0.16"
    stroke="rgba(255,255,255,0.12)"
  />
  <path
    d="M22 24.5H31.5C37.299 24.5 42 29.201 42 35V39.5H32.5C26.701 39.5 22 34.799 22 29V24.5Z"
    fill="url(#paint1_linear)"
  />
  <path
    d="M42 24.5V35C42 40.799 37.299 45.5 31.5 45.5H22V35C22 29.201 26.701 24.5 32.5 24.5H42Z"
    stroke="#E2F8FF"
    stroke-width="2.5"
    stroke-linejoin="round"
  />
  <path
    d="M28 32.5L31 35.5L37 28.5"
    stroke="#050816"
    stroke-width="2.5"
    stroke-linecap="round"
    stroke-linejoin="round"
  />
  <defs>
    <linearGradient id="paint0_linear" x1="8" y1="8" x2="56" y2="56" gradientUnits="userSpaceOnUse">
      <stop stop-color="#67E8F9" />
      <stop offset="1" stop-color="#38BDF8" />
    </linearGradient>
    <linearGradient id="paint1_linear" x1="22" y1="24.5" x2="42" y2="45.5" gradientUnits="userSpaceOnUse">
      <stop stop-color="#67E8F9" />
      <stop offset="1" stop-color="#5EEAD4" />
    </linearGradient>
  </defs>
</svg>
